<svg width="576" height="590" viewBox="0 0 576 590" fill="none" xmlns="http://www.w3.org/2000/svg">
<path d="M309.409 98.272C345.242 100.79 374.293 116.456 360.8 119.646C347.307 122.837 304.207 131.608 293.189 140.449C282.171 149.289 269.565 164.851 266.801 178.294C263.608 193.822 261.415 215.579 246.518 222.96C237.869 227.246 196.435 208.352 187.145 205.689C170.601 201.419 124.346 199.344 107.531 245.135C90.7159 290.927 74.9545 248.746 69.8921 237.382C58.6604 212.172 47.9913 181.645 59.899 153.811C65.8807 139.829 74.5052 123.73 86.586 115.108C100.02 105.519 116.416 99.085 131.586 93.9278C159.956 84.2836 174.665 88.7146 202.26 102.427C224.583 113.519 273.575 95.7536 309.409 98.272Z" fill="#3153FF"/>
<path d="M97.9744 334.794C116.462 321.96 171.815 284.662 158.473 303.974C145.131 323.286 122.994 354.852 123.303 392.764C123.611 430.677 125.006 472.767 118.606 502.579C112.206 532.392 93.4019 417.327 85.9634 421.874C78.5249 426.421 75.3117 455.529 70.9602 479.436C70.4441 482.272 66.6294 507.218 60.7608 497.153C49.8368 478.417 44.4214 459.887 44.0011 441.236C43.347 412.208 52.9075 393.775 63.3571 373.629L63.6308 373.101C72.1987 356.58 84.1516 344.39 97.9744 334.794Z" fill="#E1FF2D"/>
<path d="M215.981 525.764C214.558 516.841 231.104 517.13 237.286 516.445C243.467 515.76 256.479 517.502 261.965 522.368C265.586 525.581 260.26 528.454 257.942 529.624C252.821 532.209 251.099 533.241 245.189 534.213C238.923 535.243 229.559 534.209 224.399 531.951C221.519 530.691 215.504 528.664 215.981 525.764Z" fill="black"/>
<path d="M538.554 190.515C536.828 199.93 518.862 194.162 511.859 192.801C504.855 191.441 491.284 185.386 487.082 178.693C484.307 174.273 491.181 173.158 494.143 172.753C500.686 171.857 502.947 171.393 509.758 172.376C516.981 173.418 526.828 177.555 531.635 181.527C534.316 183.742 540.141 187.766 538.554 190.515Z" fill="black"/>
<path d="M530.564 136.433C529.998 158.2 491.534 160.106 476.818 162.773C462.102 165.44 432.513 163.205 421.837 152.081C414.79 144.737 428.464 136.814 434.379 133.563C447.448 126.382 451.914 123.564 466.12 120.235C481.184 116.704 502.573 117.771 513.626 122.518C519.794 125.166 532.941 129.209 530.564 136.433Z" fill="#E1FF2D"/>
<path d="M399.357 492.513C377.225 492.326 346.142 486.961 326.963 484.412C307.784 481.862 299.739 486.35 290.577 503.718C281.415 521.086 289.893 531.014 302.462 538.001C315.032 544.988 332.971 546.981 350.249 546.899C367.528 546.816 386.543 541.263 400.191 536.939C414.238 532.49 427.678 527.177 443.013 519.49C458.348 511.803 484.515 480.518 460.215 480.519C435.915 480.52 421.489 492.699 399.357 492.513Z" fill="#3153FF"/>
<path d="M351.284 104.745C373.18 107.971 403.231 117.556 421.878 122.717C440.524 127.878 449.11 124.538 460.572 108.594C472.033 92.6493 465 81.6509 453.51 73.0028C442.02 64.3548 424.525 59.9161 407.399 57.6232C390.273 55.3304 370.676 58.2182 356.562 60.625C342.038 63.102 327.995 66.5175 311.749 72.0243C295.503 77.531 265.285 104.924 289.355 108.262C313.425 111.6 329.387 101.519 351.284 104.745Z" fill="#3153FF"/>
<path d="M77.8751 406.416C70.6247 377.843 46.7967 359.9 55.6788 327.659C64.5609 295.418 111.485 297.221 126.405 283.108C141.324 268.995 125.062 244.466 112.421 230.477" stroke="black" stroke-width="2" stroke-linecap="round"/>
<path d="M252.887 119.066C241.883 93.4778 257.606 59.225 282.688 63.1997C289.779 64.3235 298.124 67.5082 304.964 66.2307C321.457 63.1501 329.345 50.4658 335.196 34.3612" stroke="black" stroke-width="2" stroke-linecap="round"/>
<path d="M540.985 412.8C529.72 427.755 512.161 447.002 490.426 451.359C468.691 455.717 448.292 462.779 447.473 447.175C446.888 436.011 446.324 421.804 448.646 414.876C450.968 407.949 458.419 402.587 472.284 400.663C489.277 398.305 516.055 379.079 529.33 367.527C535.982 361.739 544.112 355.679 547.656 346.957C551.2 338.234 554.621 326.538 557.3 318.846C566.641 292.028 569.366 316.583 569.723 323.386C570.431 336.884 568.651 349.251 563.982 362.719C558.381 378.873 551.776 398.473 540.985 412.8Z" fill="#E1FF2D"/>
<path d="M540.895 270.722C523.542 280.115 508.093 253.978 500.656 244.85C493.219 235.722 484.252 213.951 489.145 201.455C492.375 193.206 503.575 199.239 508.281 201.928C518.677 207.87 522.516 209.737 530.29 218.209C538.533 227.193 545.449 242.683 545.717 252.576C545.866 258.095 547.448 269.141 540.895 270.722Z" fill="#3153FF"/>
<path d="M167.968 512.305C160.56 512.608 154.912 504.915 152.099 502.009C149.285 499.103 146.188 493.115 148.547 490.757C150.104 489.201 154.553 491.797 156.418 492.924C160.539 495.412 162.069 496.256 165.04 499.047C168.19 502.006 170.614 506.324 170.452 508.636C170.363 509.926 170.711 512.645 167.968 512.305Z" fill="black"/>
<path d="M240.928 69.7046C237.674 63.6975 228.926 71.3379 225.3 73.7158C221.675 76.0935 215.477 83.0132 214.725 88.4141C214.227 91.9798 218.379 91.3031 220.149 90.9605C224.061 90.2038 225.45 90.0474 229.058 87.9647C232.884 85.7562 237.443 80.9087 239.196 77.2226C240.174 75.1659 242.489 71.2327 240.928 69.7046Z" fill="black"/>
<path d="M56.2852 245.091C61.7166 265.61 96.2447 288.264 94.8477 290.138C93.4506 292.011 69.222 285.876 53.4948 274.262C42.4652 266.118 35.265 247.745 41.8438 233.206C50.1894 214.763 54.8663 239.73 56.2852 245.091Z" fill="black"/>
<path d="M467.221 457.755C488.542 460.12 524.874 436.18 525.972 438.158C527.07 440.135 510.56 460.464 492.819 470.9C480.378 478.219 460.24 478.276 449.808 466.896C436.574 452.46 461.651 457.137 467.221 457.755Z" fill="black"/>
<path d="M486.514 427.895C477.086 409.363 471.405 388.958 501.828 391.942C532.251 394.926 529.244 370.957 525.131 351.639C521.653 335.308 514.878 313.887 518.18 301.6" stroke="black" stroke-width="2" stroke-linecap="round"/>
<path d="M517.456 291.844C517.128 287.699 517.319 287.891 518.595 285.538" stroke="black" stroke-width="2" stroke-linecap="round"/>
<path d="M569.845 267.286C571.276 272.21 570.482 276.654 569.706 280.941C567.745 291.779 558.891 299.532 546.217 303.536C538.557 305.956 527.835 306.133 517.959 305.297C507.258 304.391 496.623 307.121 492.31 312.894C488.928 317.422 488.652 322.748 490.106 328.992C491.484 334.908 494.675 340.74 492.627 345.776C490.625 350.698 484.473 352.813 478.466 354.818C470.424 357.501 462.903 360.228 455.999 363.962" stroke="black" stroke-width="2" stroke-linecap="round"/>
<path d="M82.2239 419.364C84.164 425.636 87.5482 429.549 91.5254 432.997" stroke="black" stroke-width="2" stroke-linecap="round"/>
</svg>
