<svg width="863" height="289" viewBox="0 0 863 289" fill="none" xmlns="http://www.w3.org/2000/svg">
<g clip-path="url(#clip0_128_183)">
<path d="M397.239 327.863C459.099 325.344 506.029 304.282 481.757 299.454C457.485 294.625 380.291 281.182 358.996 268.534C337.702 255.887 312.05 233.811 304.053 214.969C294.816 193.203 285.849 162.769 258.14 152.051C242.051 145.828 174.301 171.052 158.74 174.511C130.915 180.012 50.7853 181.621 10.6492 117.23C-29.4869 52.8381 -46.9838 111.284 -53.1204 127.006C-66.7351 161.888 -78.1123 204.205 -50.7761 243.392C-37.0439 263.078 -18.2051 285.791 4.89006 298.164C30.5716 311.923 60.6705 321.361 88.3315 328.982C140.059 343.235 164.648 337.458 209.503 319.083C245.788 304.219 335.379 330.382 397.239 327.863Z" fill="#3153FF"/>
<path d="M82.4191 139.274C107.685 149.753 142.937 160.498 166.785 147.018C190.633 133.538 190.932 103.36 175.802 81.1618C164.978 65.2797 151.04 45.2311 141.924 37.7822C132.808 30.3334 120.702 29.633 106.359 39.4087C88.7792 51.3901 70.4163 70.5503 46.815 66.5538C34.987 64.551 21.5641 63.4994 9.53211 54.6761C-2.49988 45.8529 -17.4457 32.8293 -27.6578 24.6484C-63.2633 -3.87485 -40.7386 32.3457 -34.1423 42.0239C-21.0553 61.2252 -6.89384 76.6431 10.9675 90.9862C32.3911 108.19 58.2152 129.235 82.4191 139.274Z" fill="#E1FF2D"/>
<path d="M319.041 236.028C365.758 254.133 463.914 251.224 465.089 254.396C466.265 257.569 415.394 270.296 368.296 270.203C335.266 270.138 289.622 255.803 273.544 234.607C253.147 207.718 306.838 231.298 319.041 236.028Z" fill="black"/>
<path d="M748.872 254.814C810.941 283.594 994.841 369.908 932.81 350.465C870.78 331.022 768.674 298.699 704.312 304.21C639.95 309.721 570.775 317.572 505.773 310.957C440.771 304.341 597.398 258.166 573.484 246.506C549.569 234.845 492.679 233.389 442.243 229.371C436.261 228.895 385.207 225.898 389.757 214.897C398.226 194.42 418.278 183.049 449.359 179.896C497.733 174.988 550.064 188.314 607.261 202.88L608.759 203.261C655.659 215.204 702.466 233.297 748.872 254.814Z" fill="#E1FF2D"/>
<path d="M-16 101.277C-5.96121 117.521 14.1306 147.524 31.3894 145.635C48.6482 143.746 52.4474 125.884 58.3087 124.297C69.7741 121.194 81.3357 139.323 89.8477 147.477C101.206 158.357 118.411 169.101 131.97 167.211" stroke="black" stroke-width="2" stroke-linecap="round"/>
<path d="M664.03 339.484C645.684 329.961 634.185 329.759 613.464 313.898C592.743 298.036 593.846 284.706 584.762 274.455C575.679 264.205 559.941 259.039 550.97 257.102" stroke="black" stroke-width="2" stroke-linecap="round"/>
<path d="M532.548 251.332C522.061 247.989 511.409 245.633 493 243" stroke="black" stroke-width="2" stroke-linecap="round"/>
<path d="M25.1709 35.7892C22.8985 42.1403 12.2542 38.694 7.99318 37.9461C3.7322 37.1981 -4.09564 33.4568 -5.9156 29.0686C-7.11716 26.1714 -2.62797 25.263 -0.703007 24.9221C3.54924 24.169 5.03805 23.8046 9.22469 24.3042C13.6643 24.834 19.3763 27.3768 21.9197 29.9264C23.3389 31.349 26.5202 33.9095 25.1709 35.7892Z" fill="black"/>
</g>
<defs>
<clipPath id="clip0_128_183">
<rect width="863" height="289" fill="white"/>
</clipPath>
</defs>
</svg>
