<svg width="62" height="62" viewBox="0 0 62 62" fill="none" xmlns="http://www.w3.org/2000/svg">
<path d="M54.8507 -0.256165H6.75294C2.95666 -0.256165 -0.118164 2.80711 -0.118164 6.58913V54.5062C-0.118164 58.2882 2.95666 61.3515 6.75294 61.3515H54.8507C58.647 61.3515 61.7218 58.2882 61.7218 54.5062V6.58913C61.7218 2.80711 58.647 -0.256165 54.8507 -0.256165ZM20.4952 47.6609H11.8273V23.7024H20.4952V47.6609ZM16.0083 19.3111C13.3595 19.3111 11.5902 17.5519 11.5902 15.2039C11.5902 12.856 13.3561 11.0968 16.3003 11.0968C18.9492 11.0968 20.7185 12.856 20.7185 15.2039C20.7185 17.5519 18.9526 19.3111 16.0083 19.3111ZM51.4151 47.6609H43.0255V34.5659C43.0255 30.9447 40.789 30.1096 39.9507 30.1096C39.1124 30.1096 36.3159 30.6675 36.3159 34.5659C36.3159 35.1237 36.3159 47.6609 36.3159 47.6609H27.648V23.7024H36.3159V27.0463C37.4324 25.0954 39.669 23.7024 43.8638 23.7024C48.0586 23.7024 51.4151 27.0463 51.4151 34.5659V47.6609Z" fill="black"/>
</svg>
