<svg id="Layer_1" data-name="Layer 1" xmlns="http://www.w3.org/2000/svg" xmlns:xlink="http://www.w3.org/1999/xlink" viewBox="0 0 801 410"><defs><style>.cls-1{fill:none;}.cls-2{clip-path:url(#clip-path);}.cls-3{clip-path:url(#clip-path-2);}.cls-4{fill:#fff;}.cls-5{clip-path:url(#clip-path-3);}</style><clipPath id="clip-path"><rect class="cls-1" x="155.37" y="-571.3" width="490" height="490"/></clipPath><clipPath id="clip-path-2"><rect class="cls-1" x="707.87" y="-571.3" width="490" height="490"/></clipPath><clipPath id="clip-path-3"><rect class="cls-1" x="0.37" y="0.33" width="801" height="410"/></clipPath></defs><g class="cls-2"><path d="M382,51.49Q251.76-245.37,319.68-319.77q29.77-32.61,80.17,13.39,21.6,19.72,84.54,102.89l72.49,95.83q-63-144-80.72-254.09T492.44-509q37.4-41,88.71,5.87,18.45,16.85,73.38,89.24l37.34,49.41q33.75,44.66,53.35,62.55c23.06,21.05,50.13,28.64,55.51,8.66,21.64-80.4-140.36-235.4-86.36-318.4l59-39C864.74-424.24,885.15-281.43,832-223.21q-50.94,55.8-128.85-15.33-26-23.7-73.54-86.91l-32.93-43.9q-33.51-44.43-43.32-53.39-12.39-11.33-23.23.54-26.58,29.1,28.53,217.31Q609.2-33.7,625.35-18.95a40.53,40.53,0,0,0,7,4.46q-2.58,4.56-8.29,16.65-2.25,5.36-9.62,13.45Q591.6,40.67,566,17.26q-7.79-7.11-39.6-51Q514.93-49.57,501.5-67.28l-50.77-67.11Q396-207,382.79-219.15q-19.31-17.62-31.37-4.42Q324.84-194.47,384.68-36q59.22,157.37,80.55,176.83,6.06,5.53,15.76,6.48-6.57,21.18-17.89,33.58-25.61,28.05-57.91-1.47-4.05-3.69-76.59-84.74L272.8,32.33Q243.45-.41,216-25.44,181.4-57,153.18-58.6q16.44-42.33,28.25-55.27,21.65-23.72,51.64,3.66,10.67,9.75,73.39,78.86Z"/></g><g class="cls-3"><path class="cls-4" d="M934.53,51.49Q804.25-245.37,872.18-319.77q29.77-32.61,80.17,13.39,21.6,19.72,84.54,102.89l72.49,95.83q-63-144-80.72-254.09T1044.94-509q37.39-41,88.71,5.87,18.45,16.85,73.38,89.24l37.34,49.41q33.75,44.66,53.35,62.55c23.06,21.05,50.13,28.64,55.51,8.66,21.64-80.4-140.36-235.4-86.36-318.4l59-39c91.37,226.43,111.78,369.24,58.62,427.46q-50.94,55.8-128.85-15.33-26-23.7-73.54-86.91l-32.93-43.9q-33.51-44.43-43.32-53.39-12.39-11.33-23.23.54-26.58,29.1,28.53,217.31,50.55,171.19,66.7,185.94a40.53,40.53,0,0,0,7.05,4.46q-2.58,4.56-8.29,16.65-2.25,5.36-9.62,13.45-22.89,25.07-48.54,1.65-7.79-7.11-39.6-51Q1067.44-49.57,1054-67.28l-50.77-67.11Q948.54-207,935.29-219.15q-19.31-17.62-31.37-4.42Q877.34-194.47,937.18-36q59.22,157.37,80.55,176.83,6.06,5.53,15.76,6.48-6.57,21.18-17.89,33.58Q990,208.9,957.69,179.38q-4.05-3.69-76.59-84.74L825.3,32.33Q795.95-.41,768.53-25.44,733.9-57,705.68-58.6q16.44-42.33,28.25-55.27,21.65-23.72,51.64,3.66,10.66,9.75,73.39,78.86Z"/></g><g class="cls-5"><path d="M34.83,241.21c44.73,39.86,106.51,49.2,159.69,30.56L213.36,319c-70.52,25.54-151.82,13-211.84-40.46-84.94-75.7-92.13-210.12-16.44-295,77.21-86.64,209.94-95.35,296-18.65Zm323.74-193c29.45,26.24,32.1,72.29,5.86,101.73S292.14,182,262.7,155.75,230.6,83.46,256.84,54,329.13,21.93,358.57,48.17Z"/><path d="M384.62,546.13Q298.48,261.35,368.52,201q30.71-26.44,71.58,21,17.52,20.34,65.75,103l55.54,95.27q-41.64-138.15-45.68-240.37t31-132.39q38.58-33.22,80.19,15.08Q641.84,80,684,152l28.61,49.11q25.85,44.4,41.75,62.85c18.7,21.71,42.53,31.59,49.62,14C832.47,207,701.86,48,760.17-21.67l58-29.06c58.42,216.33,61.35,348.7,6.53,395.92Q772.21,390.45,709,317.09,688,292.64,651.54,229.83l-25.19-43.62q-25.67-44.15-33.62-53.39-10.05-11.67-21.23-2.06-27.4,23.61,2.17,201.14Q601,493.43,614.05,508.64a37.11,37.11,0,0,0,5.93,4.83q-2.85,3.88-9.38,14.26-2.62,4.65-10.24,11.21-23.61,20.32-44.41-3.82-6.3-7.33-30.49-50.8-8.65-15.69-19-33.3L467.6,384.3Q425.75,312.11,415,299.61q-15.66-18.17-28.1-7.46-27.4,23.61,9.74,174.52,36.71,149.9,54,170,4.92,5.72,13.65,7.63-8.31,18.59-20,28.64-26.4,22.74-52.6-7.69-3.29-3.81-60.49-85.62l-44-62.9q-23.16-33-45.39-58.86-28.1-32.59-53.63-37.1Q207.78,384,220,373.47q22.32-19.25,46.65,9,8.65,10.05,58.22,79.91Z"/></g></svg>