<svg id="Layer_1" data-name="Layer 1" xmlns="http://www.w3.org/2000/svg" xmlns:xlink="http://www.w3.org/1999/xlink" viewBox="0 0 490 490"><defs><style>.cls-1{fill:none;}.cls-2{clip-path:url(#clip-path);}.cls-3{clip-path:url(#clip-path-2);}.cls-4{fill:#fff;}</style><clipPath id="clip-path"><rect class="cls-1" x="-155" y="-553.97" width="801" height="490"/></clipPath><clipPath id="clip-path-2"><rect class="cls-1" y="0.03" width="490" height="490"/></clipPath></defs><g class="cls-2"><path d="M226.66,68.82Q96.39-228,164.31-302.44,194.08-335,244.48-289q21.6,19.71,84.54,102.88l72.49,95.84q-63-144-80.72-254.09t16.28-147.25q37.4-41,88.71,5.87,18.45,16.85,73.38,89.23l37.34,49.41q33.75,44.65,53.35,62.55c23.06,21.05,50.13,28.64,55.51,8.67C667-356.33,505-511.33,559-594.33l59-39c91.37,226.42,111.78,369.23,58.62,427.46q-50.94,55.79-128.85-15.33-26-23.72-73.54-86.92L441.3-352Q407.79-396.43,398-405.4q-12.39-11.33-23.23.53-26.58,29.12,28.53,217.32Q453.83-16.35,470-1.61a40.67,40.67,0,0,0,7,4.45q-2.58,4.56-8.29,16.65-2.25,5.36-9.62,13.45Q436.23,58,410.58,34.59q-7.79-7.1-39.6-51-11.42-15.86-24.85-33.56L295.36-117q-54.69-72.66-67.94-84.77-19.3-17.62-31.37-4.42-26.58,29.12,33.26,187.53,59.22,157.38,80.55,176.84,6.06,5.52,15.76,6.47-6.57,21.19-17.89,33.59-25.61,28-57.91-1.47-4-3.69-76.59-84.75l-55.8-62.31Q88.07,16.93,60.66-8.11,26-39.72-2.19-41.26,14.25-83.59,26.06-96.53q21.65-23.72,51.64,3.65Q88.37-83.13,151.09-14Z"/></g><g class="cls-3"><rect class="cls-4" x="-5" y="-0.33" width="495" height="495"/><path d="M-120.54,271.91C-75.81,311.78-14,321.12,39.15,302.48L58,349.74c-70.52,25.55-151.82,13-211.84-40.45C-238.79,233.59-246,99.17-170.29,14.23c77.21-86.63,209.94-95.34,296-18.64Zm323.74-193c29.45,26.24,32.1,72.29,5.86,101.74s-72.29,32.09-101.73,5.85-32.1-72.29-5.86-101.73S173.76,52.63,203.2,78.87Z"/><path d="M226.66,622.82Q96.39,326,164.31,251.56,194.08,219,244.48,265q21.6,19.71,84.54,102.88l72.49,95.84q-63-144-80.72-254.09T337.07,62.34q37.4-41,88.71,5.87,18.45,16.85,73.38,89.23l37.34,49.41q33.75,44.66,53.35,62.55c23.06,21.05,50.13,28.64,55.51,8.67C667,197.67,505,42.67,559-40.33l59-39c91.37,226.42,111.78,369.23,58.62,427.46q-50.94,55.78-128.85-15.33-26-23.71-73.54-86.92L441.3,202Q407.79,157.57,398,148.6q-12.39-11.32-23.23.53-26.58,29.12,28.53,217.32Q453.83,537.65,470,552.39a40.67,40.67,0,0,0,7,4.45q-2.58,4.56-8.29,16.65-2.25,5.35-9.62,13.45-22.89,25.08-48.54,1.65-7.79-7.1-39.6-51-11.42-15.86-24.85-33.56L295.36,437q-54.69-72.66-67.94-84.77-19.3-17.62-31.37-4.42-26.58,29.12,33.26,187.53,59.22,157.38,80.55,176.84,6.06,5.52,15.76,6.47-6.57,21.2-17.89,33.59-25.61,28-57.91-1.47-4-3.69-76.59-84.75l-55.8-62.31q-29.36-32.73-56.77-57.77Q26,514.29-2.19,512.74q16.44-42.33,28.25-55.27,21.65-23.72,51.64,3.65,10.67,9.75,73.39,78.87Z"/></g></svg>