<svg id="Layer_1" data-name="Layer 1" xmlns="http://www.w3.org/2000/svg" xmlns:xlink="http://www.w3.org/1999/xlink" viewBox="0 0 801 410"><defs><style>.cls-1{fill:none;}.cls-2{clip-path:url(#clip-path);}.cls-3{fill:#fff;}.cls-4{clip-path:url(#clip-path-2);}</style><clipPath id="clip-path"><rect class="cls-1" x="-168.39" y="-570.78" width="490" height="490"/></clipPath><clipPath id="clip-path-2"><rect class="cls-1" x="0.37" y="0.33" width="801" height="410"/></clipPath></defs><g class="cls-2"><path class="cls-3" d="M58.27,52Q-72-244.84-4.08-319.24q29.78-32.62,80.17,13.39Q97.69-286.12,160.63-203l72.49,95.84q-63-144-80.72-254.09t16.28-147.25q37.4-41,88.71,5.87,18.45,16.85,73.38,89.23L368.11-364q33.75,44.65,53.35,62.55c23.06,21.05,50.13,28.64,55.51,8.67,21.64-80.4-140.36-235.4-86.36-318.4l59-39C541-423.72,561.39-280.91,508.23-222.68Q457.29-166.88,379.38-238q-26-23.72-73.54-86.92l-32.93-43.9q-33.51-44.42-43.32-53.38-12.39-11.32-23.23.53-26.58,29.12,28.53,217.32,50.55,171.2,66.7,185.94A40.66,40.66,0,0,0,308.64-14q-2.58,4.58-8.29,16.65Q298.1,8,290.73,16.14q-22.89,25.07-48.54,1.64-7.78-7.1-39.6-51Q191.18-49,177.74-66.76L127-133.86Q72.28-206.52,59-218.63,39.72-236.25,27.66-223,1.08-193.93,60.92-35.51q59.22,157.37,80.55,176.83,6.06,5.53,15.76,6.47-6.57,21.19-17.89,33.59-25.61,28-57.92-1.47-4-3.69-76.58-84.75L-51,32.85Q-80.31.12-107.73-24.91q-34.63-31.62-62.85-33.16,16.44-42.33,28.24-55.27,21.66-23.72,51.65,3.65Q-80-99.94-17.3-30.82Z"/></g><g class="cls-4"><rect x="-29.89" y="-45.14" width="861" height="532"/><path class="cls-3" d="M34.83,241.21c44.73,39.86,106.51,49.2,159.69,30.56L213.36,319c-70.52,25.54-151.82,13-211.84-40.46-84.94-75.7-92.13-210.12-16.44-295,77.21-86.64,209.94-95.35,296-18.65Zm323.74-193c29.45,26.24,32.1,72.29,5.86,101.73S292.14,182,262.7,155.75,230.6,83.46,256.84,54,329.13,21.93,358.57,48.17Z"/><path class="cls-3" d="M384.62,546.13Q298.48,261.35,368.52,201q30.71-26.44,71.58,21,17.52,20.34,65.75,103l55.54,95.27q-41.64-138.15-45.68-240.37t31-132.39q38.58-33.22,80.19,15.08Q641.84,80,684,152l28.61,49.11q25.85,44.4,41.75,62.85c18.7,21.71,42.53,31.59,49.62,14C832.47,207,701.86,48,760.17-21.67l58-29.06c58.42,216.33,61.35,348.7,6.53,395.92Q772.21,390.45,709,317.09,688,292.64,651.54,229.83l-25.19-43.62q-25.67-44.15-33.62-53.39-10.05-11.67-21.23-2.06-27.4,23.61,2.17,201.14Q601,493.43,614.05,508.64a37.11,37.11,0,0,0,5.93,4.83q-2.85,3.88-9.38,14.26-2.62,4.65-10.24,11.21-23.61,20.32-44.41-3.82-6.3-7.33-30.49-50.8-8.65-15.69-19-33.3L467.6,384.3Q425.75,312.11,415,299.61q-15.66-18.17-28.1-7.46-27.4,23.61,9.74,174.52,36.71,149.9,54,170,4.92,5.72,13.65,7.63-8.31,18.59-20,28.64-26.4,22.74-52.6-7.69-3.29-3.81-60.49-85.62l-44-62.9q-23.16-33-45.39-58.86-28.1-32.59-53.63-37.1Q207.78,384,220,373.47q22.32-19.25,46.65,9,8.65,10.05,58.22,79.91Z"/></g></svg>