<svg width="1728" height="289" viewBox="0 0 1728 289" fill="none" xmlns="http://www.w3.org/2000/svg">
<g clip-path="url(#clip0_79_410)">
<path d="M1352.39 40.3985C1289.07 20.7186 1101.3 -38.4206 1163.01 -26.1677C1224.72 -13.9147 1326.35 6.50739 1386.05 -1.21553C1445.75 -8.93846 1509.59 -18.7739 1571.94 -16.8814C1634.29 -14.989 1494.52 29.8747 1519.01 37.9124C1543.5 45.9501 1597.34 44.1577 1645.53 44.7388C1651.24 44.8077 1699.84 44.5439 1697.41 53.5329C1692.88 70.2655 1675.9 80.3529 1647.16 84.4741C1602.41 90.8882 1550.87 82.9991 1494.54 74.3763L1493.06 74.1505C1446.87 67.0808 1399.73 55.1124 1352.39 40.3985Z" fill="#E1FF2D"/>
<path d="M1886.32 332.15C1924.53 352.486 1963.85 330.517 1984.43 306.309C1998.29 282.461 1960.44 271.609 1936.88 257.914C1889.05 230.118 1842.51 200.108 1794.93 172.455C1740.38 140.751 1682.13 130.5 1622.22 124.789C1590.52 121.768 1567.57 118.903 1543.26 135.24C1528.64 145.069 1556.57 147.448 1566.17 148.882C1652.35 161.765 1734.19 213.608 1802.14 268.566C1830.52 291.515 1853.33 314.591 1886.32 332.15Z" fill="#3153FF"/>
<path d="M1727.77 35.5471C1681.14 20.017 1586.54 28.2409 1585.14 25.1398C1583.74 22.0386 1631.84 6.58217 1677.36 4.12128C1709.28 2.39546 1754.56 14.2224 1771.85 34.4979C1793.78 60.2185 1739.96 39.6039 1727.77 35.5471Z" fill="black"/>
<path d="M1202.55 18.6969C1189.65 23.782 1171.67 14.3653 1163.66 11.2281C1155.65 8.09086 1143.97 -0.0426519 1145.75 -5.45631C1146.92 -9.03044 1157.53 -7.4237 1162.01 -6.68606C1171.92 -5.05661 1175.52 -4.58696 1183.69 -1.74006C1192.35 1.27885 1201.12 7.02637 1203.21 11.0048C1204.37 13.2245 1207.79 17.5713 1202.55 18.6969Z" fill="black"/>
<path d="M1800.11 83.7379C1791.08 97.116 1771.03 107.74 1710.41 80.3334C1649.79 52.9263 1618.38 62.2032 1596.69 71.1566C1578.35 78.7258 1559.06 90.5887 1532.55 91.1127" stroke="black" stroke-width="2" stroke-linecap="round"/>
<path d="M1518.69 94.4516C1512.85 95.888 1512.74 95.6686 1506.28 95.2066" stroke="black" stroke-width="2" stroke-linecap="round"/>
</g>
<defs>
<clipPath id="clip0_79_410">
<rect width="1728" height="289" fill="white"/>
</clipPath>
</defs>
</svg>
