<svg width="593" height="289" viewBox="0 0 593 289" fill="none" xmlns="http://www.w3.org/2000/svg">
<g clip-path="url(#clip0_124_156)">
<path d="M217.391 40.3985C154.074 20.7186 -33.7001 -38.4206 28.0088 -26.1677C89.7176 -13.9147 191.346 6.50739 251.049 -1.21553C310.751 -8.93846 374.594 -18.7739 436.941 -16.8814C499.289 -14.989 359.518 29.8747 384.01 37.9124C408.502 45.9501 462.339 44.1577 510.527 44.7388C516.243 44.8077 564.842 44.5439 562.408 53.5329C557.878 70.2655 540.904 80.3529 512.156 84.4741C467.413 90.8882 415.873 82.9991 359.539 74.3763L358.063 74.1505C311.871 67.0808 264.731 55.1124 217.391 40.3985Z" fill="#E1FF2D"/>
<path d="M751.322 332.15C789.532 352.486 828.85 330.517 849.432 306.309C863.292 282.461 825.438 271.609 801.875 257.914C754.047 230.118 707.514 200.108 659.933 172.455C605.382 140.751 547.128 130.5 487.215 124.789C455.525 121.768 432.567 118.903 408.261 135.24C393.639 145.069 421.573 147.448 431.167 148.882C517.354 161.765 599.185 213.608 667.144 268.566C695.521 291.515 718.33 314.591 751.322 332.15Z" fill="#3153FF"/>
<path d="M592.774 35.5471C546.137 20.017 451.538 28.2409 450.14 25.1398C448.742 22.0386 496.842 6.58217 542.356 4.12128C574.276 2.39546 619.564 14.2224 636.852 34.4979C658.784 60.2185 604.957 39.6039 592.774 35.5471Z" fill="black"/>
<path d="M67.5512 18.6969C54.6519 23.782 36.6658 14.3653 28.6584 11.2281C20.6509 8.09086 8.96677 -0.0426519 10.7479 -5.45631C11.9238 -9.03044 22.5288 -7.4237 27.014 -6.68606C36.9219 -5.05661 40.5196 -4.58696 48.6881 -1.74006C57.3501 1.27885 66.1155 7.02637 68.2067 11.0048C69.3735 13.2245 72.7925 17.5713 67.5512 18.6969Z" fill="black"/>
<path d="M665.109 83.7379C656.075 97.116 636.034 107.74 575.413 80.3334C514.792 52.9263 483.379 62.2032 461.69 71.1566C443.354 78.7258 424.058 90.5887 397.552 91.1127" stroke="black" stroke-width="2" stroke-linecap="round"/>
<path d="M383.691 94.4516C377.847 95.888 377.742 95.6686 371.284 95.2066" stroke="black" stroke-width="2" stroke-linecap="round"/>
</g>
<defs>
<clipPath id="clip0_124_156">
<rect width="593" height="289" fill="white"/>
</clipPath>
</defs>
</svg>
